<svg xmlns="http://www.w3.org/2000/svg" width="201" height="32" viewBox="0 0 201 32" fill="none"><path d="M54.94 16.86C55.6867 16.9933 56.32 17.3867 56.84 18.04C57.36 18.6933 57.62 19.4333 57.62 20.26C57.62 20.9667 57.4333 21.6067 57.06 22.18C56.7 22.74 56.1733 23.1867 55.48 23.52C54.7867 23.84 53.98 24 53.06 24H47.5V10.1H52.8C53.7467 10.1 54.56 10.26 55.24 10.58C55.92 10.9 56.4333 11.3333 56.78 11.88C57.1267 12.4133 57.3 13.0133 57.3 13.68C57.3 14.48 57.0867 15.1467 56.66 15.68C56.2333 16.2133 55.66 16.6067 54.94 16.86ZM49.78 15.94H52.6C53.3467 15.94 53.9267 15.7733 54.34 15.44C54.7667 15.0933 54.98 14.6 54.98 13.96C54.98 13.3333 54.7667 12.8467 54.34 12.5C53.9267 12.14 53.3467 11.96 52.6 11.96H49.78V15.94ZM52.86 22.14C53.6333 22.14 54.24 21.9533 54.68 21.58C55.12 21.2067 55.34 20.6867 55.34 20.02C55.34 19.34 55.1067 18.8 54.64 18.4C54.1733 18 53.5533 17.8 52.78 17.8H49.78V22.14H52.86ZM62.3777 9.2V24H60.0977V9.2H62.3777ZM66.5311 11.52C66.1178 11.52 65.7711 11.38 65.4911 11.1C65.2111 10.82 65.0711 10.4733 65.0711 10.06C65.0711 9.64667 65.2111 9.3 65.4911 9.02C65.7711 8.74 66.1178 8.6 66.5311 8.6C66.9311 8.6 67.2711 8.74 67.5511 9.02C67.8311 9.3 67.9711 9.64667 67.9711 10.06C67.9711 10.4733 67.8311 10.82 67.5511 11.1C67.2711 11.38 66.9311 11.52 66.5311 11.52ZM67.6511 12.98V24H65.3711V12.98H67.6511ZM76.2045 12.8C77.0712 12.8 77.8445 12.98 78.5245 13.34C79.2179 13.7 79.7579 14.2333 80.1445 14.94C80.5312 15.6467 80.7245 16.5 80.7245 17.5V24H78.4645V17.84C78.4645 16.8533 78.2179 16.1 77.7245 15.58C77.2312 15.0467 76.5579 14.78 75.7045 14.78C74.8512 14.78 74.1712 15.0467 73.6645 15.58C73.1712 16.1 72.9245 16.8533 72.9245 17.84V24H70.6445V12.98H72.9245V14.24C73.2979 13.7867 73.7712 13.4333 74.3445 13.18C74.9312 12.9267 75.5512 12.8 76.2045 12.8ZM87.9928 18.5L93.0728 24H89.9928L85.9128 19.26V24H83.6328V9.2H85.9128V17.8L89.9128 12.98H93.0728L87.9928 18.5ZM95.867 11.52C95.4537 11.52 95.107 11.38 94.827 11.1C94.547 10.82 94.407 10.4733 94.407 10.06C94.407 9.64667 94.547 9.3 94.827 9.02C95.107 8.74 95.4537 8.6 95.867 8.6C96.267 8.6 96.607 8.74 96.887 9.02C97.167 9.3 97.307 9.64667 97.307 10.06C97.307 10.4733 97.167 10.82 96.887 11.1C96.607 11.38 96.267 11.52 95.867 11.52ZM96.987 12.98V24H94.707V12.98H96.987ZM105.54 12.8C106.407 12.8 107.18 12.98 107.86 13.34C108.554 13.7 109.094 14.2333 109.48 14.94C109.867 15.6467 110.06 16.5 110.06 17.5V24H107.8V17.84C107.8 16.8533 107.554 16.1 107.06 15.58C106.567 15.0467 105.894 14.78 105.04 14.78C104.187 14.78 103.507 15.0467 103 15.58C102.507 16.1 102.26 16.8533 102.26 17.84V24H99.9805V12.98H102.26V14.24C102.634 13.7867 103.107 13.4333 103.68 13.18C104.267 12.9267 104.887 12.8 105.54 12.8ZM117.409 12.8C118.262 12.8 119.015 12.9733 119.669 13.32C120.335 13.6533 120.855 14.0733 121.229 14.58V12.98H123.529V24.18C123.529 25.1933 123.315 26.0933 122.889 26.88C122.462 27.68 121.842 28.3067 121.029 28.76C120.229 29.2133 119.269 29.44 118.149 29.44C116.655 29.44 115.415 29.0867 114.429 28.38C113.442 27.6867 112.882 26.74 112.749 25.54H115.009C115.182 26.1133 115.549 26.5733 116.109 26.92C116.682 27.28 117.362 27.46 118.149 27.46C119.069 27.46 119.809 27.18 120.369 26.62C120.942 26.06 121.229 25.2467 121.229 24.18V22.34C120.842 22.86 120.315 23.3 119.649 23.66C118.995 24.0067 118.249 24.18 117.409 24.18C116.449 24.18 115.569 23.94 114.769 23.46C113.982 22.9667 113.355 22.2867 112.889 21.42C112.435 20.54 112.209 19.5467 112.209 18.44C112.209 17.3333 112.435 16.3533 112.889 15.5C113.355 14.6467 113.982 13.9867 114.769 13.52C115.569 13.04 116.449 12.8 117.409 12.8ZM121.229 18.48C121.229 17.72 121.069 17.06 120.749 16.5C120.442 15.94 120.035 15.5133 119.529 15.22C119.022 14.9267 118.475 14.78 117.889 14.78C117.302 14.78 116.755 14.9267 116.249 15.22C115.742 15.5 115.329 15.92 115.009 16.48C114.702 17.0267 114.549 17.68 114.549 18.44C114.549 19.2 114.702 19.8667 115.009 20.44C115.329 21.0133 115.742 21.4533 116.249 21.76C116.769 22.0533 117.315 22.2 117.889 22.2C118.475 22.2 119.022 22.0533 119.529 21.76C120.035 21.4667 120.442 21.04 120.749 20.48C121.069 19.9067 121.229 19.24 121.229 18.48ZM138.939 24L135.739 18.44H133.999V24H131.719V10.1H136.519C137.585 10.1 138.485 10.2867 139.219 10.66C139.965 11.0333 140.519 11.5333 140.879 12.16C141.252 12.7867 141.439 13.4867 141.439 14.26C141.439 15.1667 141.172 15.9933 140.639 16.74C140.119 17.4733 139.312 17.9733 138.219 18.24L141.659 24H138.939ZM133.999 16.62H136.519C137.372 16.62 138.012 16.4067 138.439 15.98C138.879 15.5533 139.099 14.98 139.099 14.26C139.099 13.54 138.885 12.98 138.459 12.58C138.032 12.1667 137.385 11.96 136.519 11.96H133.999V16.62ZM149.135 24.18C148.095 24.18 147.155 23.9467 146.315 23.48C145.475 23 144.815 22.3333 144.335 21.48C143.855 20.6133 143.615 19.6133 143.615 18.48C143.615 17.36 143.862 16.3667 144.355 15.5C144.849 14.6333 145.522 13.9667 146.375 13.5C147.229 13.0333 148.182 12.8 149.235 12.8C150.289 12.8 151.242 13.0333 152.095 13.5C152.949 13.9667 153.622 14.6333 154.115 15.5C154.609 16.3667 154.855 17.36 154.855 18.48C154.855 19.6 154.602 20.5933 154.095 21.46C153.589 22.3267 152.895 23 152.015 23.48C151.149 23.9467 150.189 24.18 149.135 24.18ZM149.135 22.2C149.722 22.2 150.269 22.06 150.775 21.78C151.295 21.5 151.715 21.08 152.035 20.52C152.355 19.96 152.515 19.28 152.515 18.48C152.515 17.68 152.362 17.0067 152.055 16.46C151.749 15.9 151.342 15.48 150.835 15.2C150.329 14.92 149.782 14.78 149.195 14.78C148.609 14.78 148.062 14.92 147.555 15.2C147.062 15.48 146.669 15.9 146.375 16.46C146.082 17.0067 145.935 17.68 145.935 18.48C145.935 19.6667 146.235 20.5867 146.835 21.24C147.449 21.88 148.215 22.2 149.135 22.2ZM159.389 14.62C159.776 14.0867 160.303 13.6533 160.969 13.32C161.649 12.9733 162.403 12.8 163.229 12.8C164.203 12.8 165.083 13.0333 165.869 13.5C166.656 13.9667 167.276 14.6333 167.729 15.5C168.183 16.3533 168.409 17.3333 168.409 18.44C168.409 19.5467 168.183 20.54 167.729 21.42C167.276 22.2867 166.649 22.9667 165.849 23.46C165.063 23.94 164.189 24.18 163.229 24.18C162.376 24.18 161.616 24.0133 160.949 23.68C160.296 23.3467 159.776 22.92 159.389 22.4V24H157.109V9.2H159.389V14.62ZM166.089 18.44C166.089 17.68 165.929 17.0267 165.609 16.48C165.303 15.92 164.889 15.5 164.369 15.22C163.863 14.9267 163.316 14.78 162.729 14.78C162.156 14.78 161.609 14.9267 161.089 15.22C160.583 15.5133 160.169 15.94 159.849 16.5C159.543 17.06 159.389 17.72 159.389 18.48C159.389 19.24 159.543 19.9067 159.849 20.48C160.169 21.04 160.583 21.4667 161.089 21.76C161.609 22.0533 162.156 22.2 162.729 22.2C163.316 22.2 163.863 22.0533 164.369 21.76C164.889 21.4533 165.303 21.0133 165.609 20.44C165.929 19.8667 166.089 19.2 166.089 18.44ZM175.444 24.18C174.404 24.18 173.464 23.9467 172.624 23.48C171.784 23 171.124 22.3333 170.644 21.48C170.164 20.6133 169.924 19.6133 169.924 18.48C169.924 17.36 170.171 16.3667 170.664 15.5C171.157 14.6333 171.831 13.9667 172.684 13.5C173.537 13.0333 174.491 12.8 175.544 12.8C176.597 12.8 177.551 13.0333 178.404 13.5C179.257 13.9667 179.931 14.6333 180.424 15.5C180.917 16.3667 181.164 17.36 181.164 18.48C181.164 19.6 180.911 20.5933 180.404 21.46C179.897 22.3267 179.204 23 178.324 23.48C177.457 23.9467 176.497 24.18 175.444 24.18ZM175.444 22.2C176.031 22.2 176.577 22.06 177.084 21.78C177.604 21.5 178.024 21.08 178.344 20.52C178.664 19.96 178.824 19.28 178.824 18.48C178.824 17.68 178.671 17.0067 178.364 16.46C178.057 15.9 177.651 15.48 177.144 15.2C176.637 14.92 176.091 14.78 175.504 14.78C174.917 14.78 174.371 14.92 173.864 15.2C173.371 15.48 172.977 15.9 172.684 16.46C172.391 17.0067 172.244 17.68 172.244 18.48C172.244 19.6667 172.544 20.5867 173.144 21.24C173.757 21.88 174.524 22.2 175.444 22.2ZM186.078 14.84V20.94C186.078 21.3533 186.171 21.6533 186.358 21.84C186.558 22.0133 186.891 22.1 187.358 22.1H188.758V24H186.958C185.931 24 185.145 23.76 184.598 23.28C184.051 22.8 183.778 22.02 183.778 20.94V14.84H182.478V12.98H183.778V10.24H186.078V12.98H188.758V14.84H186.078ZM194.859 24.18C193.993 24.18 193.213 24.0267 192.519 23.72C191.839 23.4 191.299 22.9733 190.899 22.44C190.499 21.8933 190.286 21.2867 190.259 20.62H192.619C192.659 21.0867 192.879 21.48 193.279 21.8C193.693 22.1067 194.206 22.26 194.819 22.26C195.459 22.26 195.953 22.14 196.299 21.9C196.659 21.6467 196.839 21.3267 196.839 20.94C196.839 20.5267 196.639 20.22 196.239 20.02C195.853 19.82 195.233 19.6 194.379 19.36C193.553 19.1333 192.879 18.9133 192.359 18.7C191.839 18.4867 191.386 18.16 190.999 17.72C190.626 17.28 190.439 16.7 190.439 15.98C190.439 15.3933 190.613 14.86 190.959 14.38C191.306 13.8867 191.799 13.5 192.439 13.22C193.093 12.94 193.839 12.8 194.679 12.8C195.933 12.8 196.939 13.12 197.699 13.76C198.473 14.3867 198.886 15.2467 198.939 16.34H196.659C196.619 15.8467 196.419 15.4533 196.059 15.16C195.699 14.8667 195.213 14.72 194.599 14.72C193.999 14.72 193.539 14.8333 193.219 15.06C192.899 15.2867 192.739 15.5867 192.739 15.96C192.739 16.2533 192.846 16.5 193.059 16.7C193.273 16.9 193.533 17.06 193.839 17.18C194.146 17.2867 194.599 17.4267 195.199 17.6C195.999 17.8133 196.653 18.0333 197.159 18.26C197.679 18.4733 198.126 18.7933 198.499 19.22C198.873 19.6467 199.066 20.2133 199.079 20.92C199.079 21.5467 198.906 22.1067 198.559 22.6C198.213 23.0933 197.719 23.48 197.079 23.76C196.453 24.04 195.713 24.18 194.859 24.18Z" fill="#222222"></path><path fill-rule="evenodd" clip-rule="evenodd" d="M5.05075 0C2.2613 0 0 2.2613 0 5.05075C0 5.47295 0.406397 5.77618 0.811117 5.65596L15.467 1.30256C16.2023 1.08412 16.0447 0 15.2776 0H5.05075ZM6.85614 5.85206C2.80777 6.95844 2.83348e-06 10.6365 2.83348e-06 14.8333V26.6796C2.83348e-06 29.618 2.38201 32 5.32037 32H30.5922C34.2651 32 37.2426 29.0225 37.2426 25.3495V10.4995C37.2426 8.76136 36.3936 7.13283 34.9686 6.1376L28.8121 1.83782C27.517 0.933314 25.887 0.651083 24.3632 1.06753L6.85614 5.85206ZM6.0814 10.0358C4.64794 10.4396 3.65776 11.7472 3.65776 13.2365V24.7822C3.65776 26.9863 5.76309 28.5805 7.88459 27.9829L24.8433 23.2058C26.2768 22.802 27.2669 21.4944 27.2669 20.0051V8.45936C27.2669 6.25529 25.1616 4.66108 23.0401 5.25868L6.0814 10.0358ZM19.5412 17.464C20.0921 17.464 20.5387 17.9106 20.5387 18.4615L20.5387 19.6752C20.5387 20.8723 19.7328 21.9194 18.5756 22.2258L12.1074 23.9387C11.5749 24.0797 11.0288 23.7623 10.8877 23.2297C10.7467 22.6971 11.0641 22.151 11.5967 22.01L18.0648 20.2972C18.347 20.2224 18.5436 19.9671 18.5436 19.6752L18.5436 18.4615C18.5436 17.9106 18.9902 17.464 19.5412 17.464ZM11.647 14.7692C11.647 16.3553 10.9122 17.641 10.0059 17.641C9.09962 17.641 8.36491 16.3553 8.36491 14.7692C8.36491 13.1832 9.09962 11.8974 10.0059 11.8974C10.9122 11.8974 11.647 13.1832 11.647 14.7692ZM20.2623 14.7692C21.1687 14.7692 21.9034 13.4835 21.9034 11.8974C21.9034 10.3114 21.1687 9.02564 20.2623 9.02564C19.356 9.02564 18.6213 10.3114 18.6213 11.8974C18.6213 13.4835 19.356 14.7692 20.2623 14.7692Z" fill="#2F94EF"></path></svg>